<?xml version="1.0" standalone="no"?>
<!DOCTYPE svg PUBLIC "-//W3C//DTD SVG 20010904//EN"
 "http://www.w3.org/TR/2001/REC-SVG-20010904/DTD/svg10.dtd">
<svg version="1.0" xmlns="http://www.w3.org/2000/svg"
 width="500.000000pt" height="500.000000pt" viewBox="0 0 500.000000 500.000000"
 preserveAspectRatio="xMidYMid meet">
<metadata>
Created by potrace 1.11, written by Peter Selinger 2001-2013
</metadata>
<g transform="translate(0.000000,500.000000) scale(0.100000,-0.100000)"
fill="#000000" stroke="none">
<path d="M379 4985 c-131 -36 -265 -142 -322 -255 -60 -122 -57 18 -56 -2234
0 -1945 1 -2065 18 -2127 35 -129 141 -260 255 -314 124 -59 -17 -55 2231 -55
1747 0 2068 3 2114 15 183 48 332 203 370 383 8 37 11 650 10 2110 0 1769 -2
2065 -15 2112 -48 183 -200 330 -379 369 -78 16 -4165 13 -4226 -4z m4243
-212 c64 -29 132 -101 157 -165 20 -53 20 -69 20 -2108 0 -2032 0 -2056 -20
-2107 -25 -64 -93 -137 -157 -166 l-47 -22 -2065 -2 c-2054 -2 -2065 -2 -2118
18 -70 27 -144 102 -171 171 -20 53 -20 68 -20 2104 -1 1821 1 2057 14 2095
33 93 99 160 190 191 47 16 177 17 2110 15 l2060 -2 47 -22z"/>
<path d="M1447 3702 c-7 -11 -989 -2464 -994 -2484 -5 -17 6 -18 137 -18 165
0 200 11 229 69 10 20 69 168 131 329 l113 292 560 -2 560 -3 49 -125 c167
-430 200 -508 224 -531 24 -23 32 -24 186 -27 130 -3 160 -1 155 10 -2 7 -228
572 -502 1256 l-497 1242 -173 0 c-96 0 -176 -3 -178 -8z m427 -1014 c114
-296 205 -541 203 -545 -3 -4 -209 -8 -459 -8 -428 1 -453 2 -450 18 2 10 71
192 153 405 207 532 254 657 273 727 9 33 19 67 23 75 3 8 15 -18 27 -60 13
-41 116 -317 230 -612z"/>
<path d="M3920 3663 c-1 -27 -1 -417 -1 -868 -1 -451 -5 -849 -10 -885 -20
-145 -73 -265 -150 -339 -100 -95 -288 -134 -459 -95 -139 31 -165 11 -175
-131 -4 -49 -9 -97 -11 -106 -4 -13 7 -20 44 -28 174 -42 400 -47 537 -12 137
36 238 92 330 185 88 88 133 164 178 296 53 154 55 193 56 1148 l1 882 -170 0
-170 0 0 -47z"/>
</g>
</svg>
